<svg width="1142" height="581" viewBox="0 0 1142 581" fill="none" xmlns="http://www.w3.org/2000/svg">
<path d="M625.635 0C661.118 0.000110507 691.39 28.9859 697.679 61.4636C700.83 77.7357 697.969 94.9146 686.721 109.779C675.829 124.173 657.127 136.325 628.584 143.427C665.248 154.862 678.88 185.033 692.34 214.948C706.167 245.68 719.815 276.141 757.621 287.174L757.408 288.67H690.866C669.662 288.67 654.889 280.703 644.06 268.452C633.262 256.237 626.411 239.793 620.935 222.871C618.195 214.404 615.79 205.791 613.412 197.511C611.031 189.224 608.675 181.269 606.025 174.084C600.734 159.738 594.343 148.688 584.489 144.116H565.431V185.398L564.417 185.047H564.413C564.411 185.046 564.408 185.044 564.404 185.042C564.396 185.039 564.383 185.035 564.367 185.029C564.335 185.018 564.286 185.002 564.224 184.979C564.098 184.935 563.913 184.868 563.672 184.78C563.19 184.603 562.485 184.338 561.588 183.989C559.795 183.291 557.235 182.252 554.165 180.884C548.026 178.149 539.835 174.095 531.639 168.824C523.448 163.555 515.222 157.05 509.037 149.405C502.849 141.756 498.674 132.925 498.674 123.029V26.9876C498.674 22.4244 498.211 16.061 494.831 10.8493C491.493 5.70211 485.207 1.52855 473.215 1.5285V0H625.635ZM579.383 3.60197L579.35 3.60631C573.817 4.09886 563.903 11.7175 563.902 36.4887V140.835H604.002C607.341 140.835 610.447 138.937 613.218 135.794C615.995 132.643 618.518 128.154 620.705 122.749C625.08 111.932 628.175 97.2809 629.224 81.8574C630.273 66.4323 629.279 50.1784 625.436 36.1543C621.595 22.1427 614.879 10.2547 604.406 3.71921L604.221 3.60197H579.383Z" fill="#590303"/>
<path d="M515.885 178.75C446.065 142.193 473.272 71.5632 501.79 64.6797C336.257 97.4585 376.576 206.103 444.099 242.013C572.919 310.521 622.743 307.898 613.565 396.073C708.297 282.331 594.553 219.94 515.885 178.75Z" fill="url(#paint0_linear_5329_410)"/>
<path d="M1102.44 506.586C1102.44 511.328 1105.55 515.121 1112.46 515.121C1118.7 515.121 1124.12 509.973 1124.12 501.572V496.83L1114.5 497.779C1106.37 498.592 1102.44 501.03 1102.44 506.586ZM1141.32 483.552V527.858H1124.93L1124.79 516.476C1121.68 524.335 1115.72 528.942 1106.77 528.942C1093.36 528.942 1084.96 519.593 1084.96 508.618C1084.96 489.92 1101.49 487.481 1115.17 486.262L1124.12 485.449V483.959C1124.12 477.049 1117.48 473.39 1107.99 473.39C1100.81 473.39 1093.9 475.287 1087.26 478.945L1091.46 462.958C1098.1 459.57 1105.28 458.486 1111.92 458.486C1127.77 458.486 1141.32 465.938 1141.32 483.552Z" fill="#590303"/>
<path d="M1057.61 487.481C1057.61 479.487 1053.82 474.068 1045.69 474.068C1037.29 474.068 1032.41 479.487 1032.41 489.514V527.858H1014.93V459.706H1031.87L1032 470.816C1035.66 463.093 1042.84 458.486 1052.33 458.486C1066.55 458.486 1075.09 468.242 1075.09 483.01V527.858H1057.61V487.481Z" fill="#590303"/>
<path d="M940.703 527.86V430.578H958.181V470.006C961.975 462.825 969.021 458.489 978.099 458.489C992.325 458.489 1000.86 468.245 1000.86 483.013V527.86H983.383V487.484C983.383 479.355 979.453 474.071 971.459 474.071C963.059 474.071 958.181 479.49 958.181 489.517V527.86H940.703Z" fill="#590303"/>
<path d="M928.25 463.095L924.456 477.864C919.308 474.205 912.94 472.851 908.062 472.851C901.016 472.851 897.629 475.018 897.629 478.677C897.629 481.386 898.849 482.741 903.997 484.774L914.837 489.109C924.727 493.039 930.147 497.916 930.147 507.807C930.147 521.492 919.443 529.757 902.913 529.757C895.326 529.757 886.248 527.86 881.912 523.795V508.078C889.5 513.633 896.952 515.124 903.049 515.124C909.688 515.124 913.075 512.956 913.075 509.027C913.075 506.046 911.314 504.962 906.165 502.929L895.055 498.594C886.112 495.071 880.422 490.058 880.422 479.625C880.422 466.889 891.126 458.082 909.417 458.082C916.462 458.082 923.779 459.843 928.25 463.095Z" fill="#590303"/>
<path d="M851.257 527.86V459.709H868.735V527.86H851.257ZM851.121 448.734V430.578H868.87V448.734H851.121Z" fill="#590303"/>
<path d="M840.549 479.22C838.246 477.865 835.129 477.052 832.149 477.052C823.884 477.052 818.193 481.387 818.193 494.124V527.861H800.715V459.709H817.245L817.38 474.477C820.361 465.535 825.916 458.625 835.671 458.625C838.788 458.625 841.904 459.709 843.801 461.741L840.549 479.22Z" fill="#590303"/>
<path d="M729.66 527.86V430.578H747.138V489.246L772.475 459.709H793.476L765.701 491.82L793.747 527.86H771.933L747.138 495.343V527.86H729.66Z" fill="#590303"/>
<path d="M677.045 506.586C677.045 511.328 680.161 515.121 687.071 515.121C693.304 515.121 698.723 509.973 698.723 501.572V496.83L689.103 497.779C680.974 498.592 677.045 501.03 677.045 506.586ZM715.931 483.552V527.858H699.536L699.401 516.476C696.284 524.335 690.323 528.942 681.38 528.942C667.967 528.942 659.566 519.593 659.566 508.618C659.566 489.92 676.096 487.481 689.781 486.262L698.723 485.449V483.959C698.723 477.049 692.084 473.39 682.6 473.39C675.419 473.39 668.509 475.287 661.87 478.945L666.07 462.958C672.709 459.57 679.89 458.486 686.529 458.486C702.381 458.486 715.931 465.938 715.931 483.552Z" fill="#590303"/>
<path d="M589.539 527.86V430.578H607.017V470.006C610.811 462.825 617.857 458.489 626.935 458.489C641.161 458.489 649.697 468.245 649.697 483.013V527.86H632.219V487.484C632.219 479.355 628.289 474.071 620.295 474.071C611.895 474.071 607.017 479.49 607.017 489.517V527.86H589.539Z" fill="#590303"/>
<path d="M538.944 473.258C527.021 473.258 520.653 482.471 520.653 493.717C520.653 504.963 527.021 514.311 538.944 514.311C550.867 514.311 557.1 504.963 557.1 493.717C557.1 482.471 550.867 473.258 538.944 473.258ZM557.506 515.124C553.713 523.525 545.448 529.351 534.202 529.351C515.098 529.351 503.039 513.905 503.039 493.717C503.039 473.664 515.098 458.218 534.473 458.218C545.041 458.218 553.171 463.502 557.1 471.361V430.578H574.578V527.86H557.642L557.506 515.124Z" fill="#590303"/>
<path d="M454.492 506.586C454.492 511.328 457.608 515.121 464.518 515.121C470.751 515.121 476.171 509.973 476.171 501.572V496.83L466.551 497.779C458.421 498.592 454.492 501.03 454.492 506.586ZM493.378 483.552V527.858H476.983L476.848 516.476C473.732 524.335 467.77 528.942 458.828 528.942C445.414 528.942 437.014 519.593 437.014 508.618C437.014 489.92 453.544 487.481 467.228 486.262L476.171 485.449V483.959C476.171 477.049 469.531 473.39 460.047 473.39C452.866 473.39 445.956 475.287 439.317 478.945L443.517 462.958C450.156 459.57 457.337 458.486 463.976 458.486C479.829 458.486 493.378 465.938 493.378 483.552Z" fill="#590303"/>
<path d="M363.299 527.86V434.643H400.694C419.798 434.643 429.825 446.701 429.825 462.418C429.825 475.154 423.999 485.587 410.992 489.652L432.941 527.86H412.211L391.752 491.549H381.455V527.86H363.299ZM381.455 451.037V476.103H398.797C407.604 476.103 411.398 470.548 411.398 463.367C411.398 456.592 407.74 451.037 399.204 451.037H381.455Z" fill="#590303"/>
<path d="M325.47 524.609C320.592 527.86 311.108 529.622 303.792 529.622C276.964 529.622 263.551 514.447 263.551 493.581C263.551 474.477 276.016 457.947 298.101 457.947C317.341 457.947 328.586 473.664 328.586 491.955C328.586 494.394 328.451 497.782 328.044 499.949H281.707C283.874 509.569 291.597 514.853 305.688 514.853C313.276 514.853 320.999 512.55 325.47 509.298V524.609ZM311.515 487.755C310.431 478.542 305.282 472.58 297.423 472.58C288.617 472.58 282.926 478.406 281.436 487.755H311.515Z" fill="#590303"/>
<path d="M252.96 524.609C248.083 527.86 238.598 529.622 231.282 529.622C204.455 529.622 191.041 514.447 191.041 493.581C191.041 474.477 203.506 457.947 225.591 457.947C244.831 457.947 256.077 473.664 256.077 491.955C256.077 494.394 255.941 497.782 255.535 499.949H209.197C211.365 509.569 219.088 514.853 233.179 514.853C240.766 514.853 248.489 512.55 252.96 509.298V524.609ZM239.005 487.755C237.921 478.542 232.772 472.58 224.914 472.58C216.107 472.58 210.416 478.406 208.926 487.755H239.005Z" fill="#590303"/>
<path d="M185.721 479.22C183.418 477.865 180.301 477.052 177.321 477.052C169.056 477.052 163.365 481.387 163.365 494.124V527.861H145.887V459.709H162.417L162.552 474.477C165.533 465.535 171.088 458.625 180.843 458.625C183.96 458.625 187.076 459.709 188.973 461.741L185.721 479.22Z" fill="#590303"/>
<path d="M71.6582 527.86V430.578H89.1365V470.006C92.9303 462.825 99.9758 458.489 109.054 458.489C123.28 458.489 131.816 468.245 131.816 483.013V527.86H114.338V487.484C114.338 479.355 110.409 474.071 102.415 474.071C94.0142 474.071 89.1365 479.49 89.1365 489.517V527.86H71.6582Z" fill="#590303"/>
<path d="M58.803 439.384L54.6028 456.05C47.5573 451.172 40.1053 449.817 35.0921 449.817C24.3883 449.817 18.5622 453.204 18.5622 459.979C18.5622 464.992 21.6785 467.295 27.9111 469.87L42.9506 476.238C54.3318 480.98 61.5128 487.754 61.5128 500.491C61.5128 517.969 49.3186 529.35 26.9627 529.35C18.1558 529.35 7.18101 526.64 1.89687 522.305V504.149C8.67141 509.433 19.1042 512.82 27.5046 512.82C37.1245 512.82 42.9506 509.433 42.9506 502.116C42.9506 497.103 39.8343 494.664 32.9242 491.819L16.9363 485.18C7.45199 481.251 0 475.018 0 461.334C0 444.939 13.6846 433.287 35.6341 433.287C44.17 433.287 53.2479 435.319 58.803 439.384Z" fill="#590303"/>
<path d="M953.267 580.776C951.283 580.776 949.497 580.436 947.91 579.756C946.323 579.047 945.076 578.055 944.169 576.78C943.262 575.505 942.809 574.017 942.809 572.316H947.995C948.109 573.591 948.605 574.64 949.483 575.462C950.39 576.284 951.652 576.695 953.267 576.695C954.939 576.695 956.243 576.298 957.178 575.505C958.114 574.683 958.581 573.634 958.581 572.359C958.581 571.367 958.284 570.559 957.688 569.935C957.122 569.312 956.399 568.83 955.52 568.49C954.67 568.15 953.48 567.781 951.949 567.384C950.022 566.874 948.449 566.364 947.23 565.854C946.04 565.315 945.019 564.493 944.169 563.388C943.319 562.283 942.894 560.809 942.894 558.967C942.894 557.266 943.319 555.778 944.169 554.503C945.019 553.227 946.21 552.249 947.74 551.569C949.271 550.889 951.042 550.549 953.054 550.549C955.917 550.549 958.255 551.272 960.069 552.717C961.912 554.134 962.932 556.09 963.13 558.584H957.774C957.688 557.507 957.178 556.586 956.243 555.821C955.308 555.055 954.075 554.673 952.544 554.673C951.155 554.673 950.022 555.027 949.143 555.736C948.265 556.444 947.825 557.464 947.825 558.797C947.825 559.704 948.094 560.455 948.633 561.05C949.2 561.617 949.908 562.07 950.759 562.41C951.609 562.75 952.771 563.119 954.245 563.516C956.2 564.054 957.788 564.593 959.006 565.131C960.253 565.67 961.302 566.506 962.152 567.639C963.031 568.745 963.47 570.233 963.47 572.103C963.47 573.606 963.059 575.023 962.238 576.355C961.444 577.687 960.268 578.764 958.709 579.586C957.178 580.379 955.364 580.776 953.267 580.776Z" fill="#DADADA"/>
<path d="M907.376 554.841V563.513H917.579V567.467H907.376V576.523H918.855V580.476H902.529V550.887H918.855V554.841H907.376Z" fill="#DADADA"/>
<path d="M877.462 550.93V580.477H872.615V550.93H877.462Z" fill="#DADADA"/>
<path d="M847.545 580.476H842.698L828.116 558.412V580.476H823.27V550.887H828.116L842.698 572.909V550.887H847.545V580.476Z" fill="#DADADA"/>
<path d="M792.732 574.439H780.361L778.235 580.476H773.176L783.762 550.887H789.374L799.96 580.476H794.858L792.732 574.439ZM791.372 570.486L786.568 556.754L781.721 570.486H791.372Z" fill="#DADADA"/>
<path d="M751.591 559.73C751.591 561.232 751.237 562.649 750.529 563.981C749.82 565.314 748.686 566.405 747.127 567.255C745.569 568.077 743.57 568.488 741.133 568.488H735.776V580.477H730.93V550.93H741.133C743.4 550.93 745.314 551.326 746.872 552.12C748.46 552.885 749.636 553.934 750.401 555.266C751.195 556.598 751.591 558.086 751.591 559.73ZM741.133 564.534C742.975 564.534 744.35 564.123 745.257 563.301C746.164 562.451 746.617 561.261 746.617 559.73C746.617 556.499 744.789 554.883 741.133 554.883H735.776V564.534H741.133Z" fill="#DADADA"/>
<path d="M705.855 550.93V580.477H701.008V560.24L691.995 580.477H688.636L679.581 560.24V580.477H674.734V550.93H679.964L690.337 574.1L700.668 550.93H705.855Z" fill="#DADADA"/>
<path d="M636.165 580.776C633.416 580.776 630.879 580.139 628.555 578.863C626.259 577.559 624.431 575.76 623.07 573.464C621.738 571.14 621.072 568.532 621.072 565.641C621.072 562.75 621.738 560.157 623.07 557.861C624.431 555.565 626.259 553.78 628.555 552.504C630.879 551.201 633.416 550.549 636.165 550.549C638.942 550.549 641.479 551.201 643.775 552.504C646.099 553.78 647.927 555.565 649.259 557.861C650.591 560.157 651.257 562.75 651.257 565.641C651.257 568.532 650.591 571.14 649.259 573.464C647.927 575.76 646.099 577.559 643.775 578.863C641.479 580.139 638.942 580.776 636.165 580.776ZM636.165 576.567C638.12 576.567 639.863 576.128 641.394 575.249C642.924 574.343 644.115 573.067 644.965 571.423C645.844 569.751 646.283 567.824 646.283 565.641C646.283 563.459 645.844 561.546 644.965 559.902C644.115 558.258 642.924 556.997 641.394 556.118C639.863 555.24 638.12 554.8 636.165 554.8C634.209 554.8 632.466 555.24 630.936 556.118C629.405 556.997 628.2 558.258 627.322 559.902C626.472 561.546 626.046 563.459 626.046 565.641C626.046 567.824 626.472 569.751 627.322 571.423C628.2 573.067 629.405 574.343 630.936 575.249C632.466 576.128 634.209 576.567 636.165 576.567Z" fill="#DADADA"/>
<path d="M569.484 565.641C569.484 562.75 570.15 560.157 571.483 557.861C572.843 555.565 574.671 553.78 576.967 552.504C579.291 551.201 581.828 550.549 584.577 550.549C587.723 550.549 590.515 551.328 592.952 552.887C595.418 554.418 597.204 556.6 598.309 559.434H592.484C591.719 557.875 590.656 556.713 589.296 555.948C587.935 555.183 586.362 554.8 584.577 554.8C582.621 554.8 580.878 555.24 579.348 556.118C577.817 556.997 576.613 558.258 575.734 559.902C574.884 561.546 574.459 563.459 574.459 565.641C574.459 567.824 574.884 569.737 575.734 571.381C576.613 573.025 577.817 574.3 579.348 575.207C580.878 576.086 582.621 576.525 584.577 576.525C586.362 576.525 587.935 576.142 589.296 575.377C590.656 574.612 591.719 573.45 592.484 571.891H598.309C597.204 574.725 595.418 576.908 592.952 578.438C590.515 579.969 587.723 580.734 584.577 580.734C581.799 580.734 579.263 580.096 576.967 578.821C574.671 577.517 572.843 575.717 571.483 573.421C570.15 571.126 569.484 568.532 569.484 565.641Z" fill="#DADADA"/>
<path d="M518.152 550.93V554.883H505.61V563.599H515.388V567.553H505.61V580.477H500.764V550.93H518.152Z" fill="#DADADA"/>
<path d="M462.198 580.776C459.449 580.776 456.912 580.139 454.588 578.863C452.292 577.559 450.464 575.76 449.104 573.464C447.772 571.14 447.105 568.532 447.105 565.641C447.105 562.75 447.772 560.157 449.104 557.861C450.464 555.565 452.292 553.78 454.588 552.504C456.912 551.201 459.449 550.549 462.198 550.549C464.976 550.549 467.512 551.201 469.808 552.504C472.132 553.78 473.96 555.565 475.292 557.861C476.624 560.157 477.29 562.75 477.29 565.641C477.29 568.532 476.624 571.14 475.292 573.464C473.96 575.76 472.132 577.559 469.808 578.863C467.512 580.139 464.976 580.776 462.198 580.776ZM462.198 576.567C464.154 576.567 465.897 576.128 467.427 575.249C468.958 574.343 470.148 573.067 470.998 571.423C471.877 569.751 472.316 567.824 472.316 565.641C472.316 563.459 471.877 561.546 470.998 559.902C470.148 558.258 468.958 556.997 467.427 556.118C465.897 555.24 464.154 554.8 462.198 554.8C460.242 554.8 458.499 555.24 456.969 556.118C455.438 556.997 454.234 558.258 453.355 559.902C452.505 561.546 452.08 563.459 452.08 565.641C452.08 567.824 452.505 569.751 453.355 571.423C454.234 573.067 455.438 574.343 456.969 575.249C458.499 576.128 460.242 576.567 462.198 576.567Z" fill="#DADADA"/>
<path d="M395.64 559.73C395.64 561.232 395.286 562.649 394.577 563.981C393.869 565.314 392.735 566.405 391.176 567.255C389.618 568.077 387.619 568.488 385.182 568.488H379.825V580.477H374.979V550.93H385.182C387.449 550.93 389.362 551.326 390.921 552.12C392.508 552.885 393.685 553.934 394.45 555.266C395.244 556.598 395.64 558.086 395.64 559.73ZM385.182 564.534C387.024 564.534 388.399 564.123 389.306 563.301C390.213 562.451 390.666 561.261 390.666 559.73C390.666 556.499 388.838 554.883 385.182 554.883H379.825V564.534H385.182Z" fill="#DADADA"/>
<path d="M331.725 550.93V569.763C331.725 572.002 332.307 573.689 333.469 574.823C334.659 575.956 336.303 576.523 338.4 576.523C340.526 576.523 342.17 575.956 343.332 574.823C344.522 573.689 345.117 572.002 345.117 569.763V550.93H349.964V569.678C349.964 572.087 349.44 574.128 348.391 575.8C347.342 577.473 345.939 578.72 344.182 579.542C342.425 580.364 340.483 580.775 338.358 580.775C336.232 580.775 334.291 580.364 332.533 579.542C330.804 578.72 329.43 577.473 328.409 575.8C327.389 574.128 326.879 572.087 326.879 569.678V550.93H331.725Z" fill="#DADADA"/>
<path d="M288.352 580.776C285.603 580.776 283.066 580.139 280.742 578.863C278.446 577.559 276.618 575.76 275.258 573.464C273.926 571.14 273.26 568.532 273.26 565.641C273.26 562.75 273.926 560.157 275.258 557.861C276.618 555.565 278.446 553.78 280.742 552.504C283.066 551.201 285.603 550.549 288.352 550.549C291.13 550.549 293.666 551.201 295.962 552.504C298.286 553.78 300.114 555.565 301.447 557.861C302.779 560.157 303.445 562.75 303.445 565.641C303.445 568.532 302.779 571.14 301.447 573.464C300.114 575.76 298.286 577.559 295.962 578.863C293.666 580.139 291.13 580.776 288.352 580.776ZM288.352 576.567C290.308 576.567 292.051 576.128 293.581 575.249C295.112 574.343 296.302 573.067 297.153 571.423C298.031 569.751 298.471 567.824 298.471 565.641C298.471 563.459 298.031 561.546 297.153 559.902C296.302 558.258 295.112 556.997 293.581 556.118C292.051 555.24 290.308 554.8 288.352 554.8C286.397 554.8 284.654 555.24 283.123 556.118C281.593 556.997 280.388 558.258 279.509 559.902C278.659 561.546 278.234 563.459 278.234 565.641C278.234 567.824 278.659 569.751 279.509 571.423C280.388 573.067 281.593 574.343 283.123 575.249C284.654 576.128 286.397 576.567 288.352 576.567Z" fill="#DADADA"/>
<path d="M244.654 580.477L237.852 568.658H234.153V580.477H229.307V550.93H239.51C241.777 550.93 243.691 551.326 245.249 552.12C246.837 552.914 248.013 553.977 248.778 555.309C249.572 556.641 249.968 558.129 249.968 559.773C249.968 561.7 249.402 563.457 248.268 565.044C247.163 566.603 245.448 567.666 243.124 568.233L250.436 580.477H244.654ZM234.153 564.789H239.51C241.324 564.789 242.684 564.336 243.591 563.429C244.527 562.522 244.994 561.303 244.994 559.773C244.994 558.242 244.541 557.052 243.634 556.201C242.727 555.323 241.352 554.883 239.51 554.883H234.153V564.789Z" fill="#DADADA"/>
<path d="M199.104 559.434C198.338 557.96 197.275 556.855 195.915 556.118C194.555 555.353 192.982 554.97 191.196 554.97C189.24 554.97 187.497 555.41 185.967 556.288C184.436 557.167 183.232 558.414 182.353 560.029C181.503 561.645 181.078 563.516 181.078 565.641C181.078 567.767 181.503 569.652 182.353 571.296C183.232 572.911 184.436 574.158 185.967 575.037C187.497 575.916 189.24 576.355 191.196 576.355C193.832 576.355 195.972 575.618 197.616 574.144C199.259 572.67 200.266 570.672 200.634 568.15H189.538V564.281H205.821V568.065C205.509 570.36 204.687 572.472 203.355 574.399C202.051 576.326 200.337 577.871 198.211 579.033C196.113 580.167 193.775 580.734 191.196 580.734C188.418 580.734 185.882 580.096 183.586 578.821C181.29 577.517 179.462 575.717 178.102 573.421C176.77 571.126 176.104 568.532 176.104 565.641C176.104 562.75 176.77 560.157 178.102 557.861C179.462 555.565 181.29 553.78 183.586 552.504C185.91 551.201 188.447 550.549 191.196 550.549C194.342 550.549 197.134 551.328 199.571 552.887C202.037 554.418 203.823 556.6 204.928 559.434H199.104Z" fill="#DADADA"/>
<defs>
<linearGradient id="paint0_linear_5329_410" x1="517.462" y1="64.6797" x2="517.462" y2="396.073" gradientUnits="userSpaceOnUse">
<stop stop-color="#20509A"/>
<stop offset="0.346154" stop-color="#8A348E"/>
<stop offset="0.701923" stop-color="#D51C88"/>
<stop offset="1" stop-color="#F47530"/>
</linearGradient>
</defs>
</svg>
